<?xml version="1.0" encoding="utf-8"?>
<!-- Generator: Adobe Illustrator 19.2.1, SVG Export Plug-In . SVG Version: 6.00 Build 0)  -->
<svg version="1.1" id="Warstwa_1" xmlns="http://www.w3.org/2000/svg" xmlns:xlink="http://www.w3.org/1999/xlink" x="0px" y="0px"
	 viewBox="0 0 120 50" style="enable-background:new 0 0 120 50;" xml:space="preserve">
<style type="text/css">
	.st0{display:none;stroke:#231F20;stroke-miterlimit:10;}
</style>
<g>
	<path id="XMLID_65_" d="M26.9,29.6h-5.7v-1.9c-0.4,0.3-0.8,0.6-1.3,1c-0.5,0.3-0.9,0.6-1.2,0.8c-0.5,0.2-0.9,0.4-1.3,0.5
		s-1,0.2-1.6,0.2c-2.1,0-3.7-0.9-4.9-2.6c-1.2-1.7-1.8-4-1.8-6.9c0-1.6,0.2-3,0.6-4.1c0.4-1.2,1-2.2,1.7-3c0.7-0.8,1.5-1.4,2.4-1.9
		c0.9-0.5,1.9-0.7,3-0.7c0.9,0,1.7,0.1,2.3,0.3c0.6,0.2,1.3,0.5,2.1,0.9V4.4h5.7V29.6z M21.3,24.6v-8.9c-0.3-0.1-0.6-0.3-1.1-0.3
		c-0.5-0.1-0.8-0.1-1.2-0.1c-1.4,0-2.4,0.5-3.1,1.4c-0.7,0.9-1,2.3-1,4c0,1.8,0.3,3.1,0.8,3.9c0.5,0.8,1.4,1.2,2.6,1.2
		c0.5,0,1-0.1,1.5-0.3C20.4,25.2,20.9,24.9,21.3,24.6z"/>
	<path id="XMLID_62_" d="M41,27.7c-0.4,0.3-0.7,0.6-1,0.9c-0.3,0.3-0.7,0.5-1.2,0.8c-0.5,0.2-1,0.4-1.5,0.6s-1.2,0.2-2,0.2
		c-1.6,0-2.9-0.5-4-1.6s-1.6-2.4-1.6-4.1c0-1.3,0.3-2.4,0.8-3.3c0.5-0.8,1.3-1.5,2.3-2c1-0.5,2.2-0.8,3.7-1s3-0.3,4.6-0.5v-0.1
		c0-1-0.4-1.7-1.1-2.1c-0.7-0.4-1.8-0.6-3.3-0.6c-0.7,0-1.4,0.1-2.3,0.4c-0.9,0.2-1.8,0.6-2.6,0.9h-0.5v-4.4
		c0.6-0.2,1.5-0.4,2.7-0.6c1.3-0.2,2.5-0.3,3.8-0.3c3.1,0,5.4,0.5,6.8,1.6c1.4,1,2.1,2.6,2.1,4.8v12.4H41V27.7z M41,24.9v-3.8
		c-1,0.1-1.7,0.2-2.3,0.3c-0.6,0.1-1.2,0.2-1.7,0.4c-0.5,0.2-0.9,0.4-1.2,0.8c-0.3,0.3-0.4,0.8-0.4,1.4c0,0.9,0.2,1.4,0.7,1.8
		c0.5,0.3,1.1,0.5,2,0.5c0.5,0,1-0.1,1.5-0.3C40.1,25.6,40.6,25.3,41,24.9z"/>
	<path id="XMLID_60_" d="M59.5,30.1c-1.5,0-2.9-0.2-4.1-0.6c-1.2-0.4-2.3-1-3.2-1.7c-0.9-0.8-1.6-1.8-2.1-3
		c-0.5-1.2-0.8-2.6-0.8-4.2c0-1.7,0.3-3.2,0.8-4.4s1.3-2.2,2.2-3c0.9-0.8,2-1.3,3.2-1.7c1.2-0.4,2.5-0.5,3.8-0.5c1,0,2,0.1,3,0.3
		c1,0.2,2,0.6,3,1.1v4.9h-0.7c-0.2-0.2-0.5-0.5-0.8-0.7c-0.3-0.3-0.7-0.5-1.1-0.7c-0.4-0.2-0.9-0.4-1.4-0.6
		c-0.5-0.2-1.1-0.2-1.7-0.2c-1.4,0-2.6,0.5-3.4,1.5c-0.8,1-1.2,2.4-1.2,4.1c0,1.8,0.4,3.2,1.3,4.1c0.8,0.9,2,1.3,3.4,1.3
		c0.7,0,1.3-0.1,1.9-0.2s1-0.4,1.4-0.6c0.4-0.2,0.7-0.5,1-0.7c0.3-0.2,0.5-0.5,0.7-0.7h0.7v4.9c-0.3,0.1-0.7,0.3-1.1,0.5
		c-0.4,0.2-0.9,0.3-1.3,0.5c-0.5,0.2-1.1,0.3-1.5,0.3C60.9,30.1,60.3,30.1,59.5,30.1z"/>
	<path id="XMLID_58_" d="M85.3,29.6h-5.7v-9c0-0.7,0-1.5-0.1-2.2c-0.1-0.7-0.2-1.3-0.3-1.6c-0.2-0.4-0.5-0.7-0.8-0.9
		c-0.4-0.2-0.9-0.3-1.5-0.3c-0.5,0-0.9,0.1-1.4,0.3c-0.5,0.2-1,0.4-1.5,0.8v12.9h-5.7V4.4h5.7v9c0.9-0.8,1.8-1.4,2.7-1.8
		c0.9-0.4,1.9-0.7,2.9-0.7c1.9,0,3.3,0.6,4.3,1.8c1,1.2,1.5,2.9,1.5,5.1V29.6z"/>
	<g>
		<path d="M18.9,39.7c0,1-0.2,1.9-0.6,2.8c-0.4,0.8-1,1.5-1.7,1.9c-0.6,0.4-1.1,0.6-1.7,0.7c-0.6,0.1-1.3,0.2-2.2,0.2h-2.6V34.1h2.5
			c1.1,0,1.9,0.1,2.5,0.2s1.1,0.4,1.5,0.6c0.7,0.5,1.3,1.1,1.7,1.9C18.8,37.7,18.9,38.7,18.9,39.7z M17.4,39.7
			c0-0.9-0.1-1.6-0.4-2.2c-0.3-0.6-0.7-1.1-1.3-1.4c-0.4-0.2-0.8-0.4-1.3-0.5s-1-0.2-1.7-0.2h-1.1V44h1.1c0.7,0,1.2-0.1,1.7-0.2
			c0.5-0.1,0.9-0.3,1.4-0.6c0.5-0.4,0.9-0.8,1.2-1.4C17.3,41.3,17.4,40.6,17.4,39.7z"/>
		<path d="M27.7,45.3h-7.8v-1.4l6-8.5h-5.7v-1.3h7.4v1.3L21.5,44h6.2V45.3z"/>
		<path d="M42.5,34.1l-2.8,11.2H38L35.7,36l-2.2,9.3h-1.6L29,34.1h1.5l2.3,9.3l2.2-9.3h1.5l2.3,9.4l2.2-9.4H42.5z"/>
		<path d="M51.9,35.4c0.4,0.5,0.8,1.1,1,1.8c0.2,0.7,0.4,1.6,0.4,2.5c0,0.9-0.1,1.7-0.3,2.5c-0.2,0.7-0.6,1.3-1,1.8
			c-0.5,0.5-1,0.9-1.6,1.2c-0.6,0.2-1.3,0.4-2,0.4c-0.8,0-1.4-0.1-2-0.4c-0.6-0.3-1.1-0.6-1.6-1.1c-0.4-0.5-0.8-1.1-1-1.8
			c-0.2-0.7-0.3-1.5-0.3-2.5c0-0.9,0.1-1.8,0.3-2.5s0.6-1.3,1-1.8c0.4-0.5,1-0.9,1.6-1.1c0.6-0.3,1.3-0.4,2-0.4
			c0.8,0,1.4,0.1,2.1,0.4C51,34.6,51.5,34.9,51.9,35.4z M51.7,39.7c0-0.7-0.1-1.4-0.2-2s-0.4-1-0.7-1.4c-0.3-0.4-0.7-0.7-1.1-0.9
			c-0.4-0.2-0.9-0.3-1.4-0.3c-0.5,0-1,0.1-1.4,0.3c-0.4,0.2-0.8,0.5-1.1,0.9c-0.3,0.4-0.5,0.9-0.7,1.4s-0.2,1.2-0.2,2
			c0,1.5,0.3,2.6,0.9,3.4c0.6,0.8,1.4,1.2,2.5,1.2c1,0,1.9-0.4,2.5-1.2C51.4,42.3,51.7,41.2,51.7,39.7z"/>
		<path d="M63.5,45.3h-1.7l-4.9-9.6v9.6h-1.4V34.1h2.1l4.5,8.9v-8.9h1.4V45.3z"/>
		<path d="M66.2,45.3V34.1h7v1.3h-5.5v3.1h5.1v1.3h-5.1V44h5.5v1.3H66.2z"/>
		<path d="M83.4,45.3h-1.9l-4.1-5.2l-0.7,0.7v4.5h-1.5V34.1h1.5v5.1l4.6-5.1h1.8l-4.6,5L83.4,45.3z"/>
	</g>
	<path id="XMLID_55_" class="st0" d="M95.6,30.8"/>
	<polygon id="XMLID_54_" points="99.8,11.4 96.2,22.8 92.4,11.4 86.4,11.4 93.1,29.2 88.2,42 88.2,45.3 94.2,45.3 94.2,42 
		105.6,11.4 	"/>
	<polygon id="XMLID_35_" points="106.4,29.2 100.4,29.2 95.5,42 95.5,45.3 101.6,45.3 101.6,42 101.6,42 105.4,31.6 109,42 109,42 
		109,45.3 110.9,45.3 110.9,42 	"/>
</g>
</svg>
